<?xml version="1.0" encoding="UTF-8"?>
<svg version="1.1" xmlns="http://www.w3.org/2000/svg" width="512" height="512">
<path d="M0 0 C0.9809388 -0.08664854 1.96187759 -0.17329708 2.97254181 -0.26257133 C22.66191205 -1.99599217 42.38294391 -3.00783916 62.13079834 -3.79221439 C74.63790045 -4.30186882 87.06108591 -5.00607935 99.51757812 -6.25878906 C155.62341753 -11.76669396 202.44188055 -5.26656599 246.64531858 30.9053274 C287.84928962 65.3033535 314.83242608 104.06727552 320.02424312 158.25045311 C323.40634314 196.78450473 321.31747375 235.65472867 318.95217931 274.18344313 C318.09365865 288.33661298 317.53353129 302.48043307 317.16430664 316.65454102 C317.12474377 318.16873304 317.12474377 318.16873304 317.08438165 319.7135148 C316.95325361 324.78437393 316.82644645 329.8553314 316.70117772 334.9263382 C315.9355319 365.60395349 314.86189821 396.2625009 313.18826759 426.90456676 C313.06060161 429.2760753 312.93886853 431.6478192 312.81877136 434.01972198 C312.63147217 437.69328167 312.42659326 441.36544382 312.20740908 445.03723574 C312.09479537 446.97538972 311.99678273 448.91437558 311.89949375 450.85335922 C310.88953764 466.67551407 305.82267082 480.35041493 294.08984375 491.34008789 C282.57889201 500.92239692 270.34030413 504.81536929 255.46557617 504.69177246 C253.6985788 504.7011324 253.6985788 504.7011324 251.89588451 504.71068144 C248.66649048 504.72375963 245.43771093 504.7192116 242.20833349 504.70673656 C238.70995368 504.69761403 235.21165131 504.71169115 231.71328735 504.72265625 C224.87595694 504.74036992 218.03880295 504.73663361 211.20146585 504.72500569 C205.64075549 504.7159433 200.0800943 504.71475944 194.51937866 504.71910095 C193.32869476 504.72002035 193.32869476 504.72002035 192.11395663 504.72095832 C190.50099507 504.72223732 188.88803351 504.72353418 187.27507198 504.72484869 C172.1780579 504.73623353 157.08114124 504.72317378 141.98414314 504.70164722 C129.05220553 504.68377814 116.12041158 504.68688284 103.18847656 504.70532227 C88.14260274 504.72676612 73.09681413 504.73513509 58.05092716 504.72287321 C56.44415857 504.72159912 54.83738996 504.72034163 53.23062134 504.71910095 C52.04502185 504.7181753 52.04502185 504.7181753 50.83547086 504.71723095 C45.28648233 504.71378857 39.73754821 504.71958229 34.18856812 504.72901917 C27.41895878 504.7402797 20.64953478 504.73711445 13.87994647 504.71589619 C10.43113818 504.70543989 6.98263802 504.70117011 3.53383255 504.7144928 C-0.21627391 504.72548656 -3.96552371 504.71163683 -7.71557617 504.69177246 C-9.32636409 504.70515679 -9.32636409 504.70515679 -10.96969318 504.71881151 C-25.43808767 504.5710082 -37.83860565 499.30285986 -48.375 489.43383789 C-59.65527949 477.39075261 -63.7553753 463.95287669 -63.63293457 447.68209839 C-63.63917453 446.38678857 -63.6454145 445.09147875 -63.65184355 443.75691712 C-63.66838405 440.20044002 -63.66036153 436.64439787 -63.64789867 433.08792019 C-63.63878799 429.23799276 -63.65284689 425.38813625 -63.66381836 421.53822327 C-63.68153937 414.01443436 -63.67779387 406.49080567 -63.6661678 398.96701066 C-63.65711507 392.85463284 -63.65591738 386.74229976 -63.66026306 380.62991714 C-63.66087599 379.75830589 -63.66148893 378.88669464 -63.66212043 377.98867092 C-63.66339937 376.21785305 -63.66469622 374.44703518 -63.6660108 372.67621733 C-63.67739601 356.10257199 -63.66433176 339.52901541 -63.64280933 322.95538463 C-63.62490869 308.72973366 -63.6280708 294.50421312 -63.64648438 280.27856445 C-63.66787326 263.7466111 -63.6763307 247.21473515 -63.66403532 230.68276989 C-63.66276113 228.9217136 -63.66150365 227.1606573 -63.66026306 225.39960098 C-63.65933741 224.09994435 -63.65933741 224.09994435 -63.65839306 222.77403202 C-63.65493654 216.6628009 -63.6607743 210.55161887 -63.67018127 204.44039536 C-63.68137922 197.00259619 -63.67840655 189.56496595 -63.6570583 182.12718622 C-63.64652285 178.33128011 -63.64246856 174.53565605 -63.65565491 170.73975182 C-63.66971121 166.63150094 -63.65296659 162.52396674 -63.63293457 158.41574097 C-63.64185746 157.20769833 -63.65078034 155.9996557 -63.65997362 154.75500572 C-63.64432714 153.11216722 -63.64432714 153.11216722 -63.62836456 151.43614006 C-63.62771515 150.48743093 -63.62706574 149.53872181 -63.62639666 148.56126392 C-63.125 146.18383789 -63.125 146.18383789 -61.21853971 144.35556901 C-59.125 143.18383789 -59.125 143.18383789 -57.125 143.18383789 C-57.125 141.20383789 -57.125 139.22383789 -57.125 137.18383789 C-57.929375 137.03946289 -58.73375 136.89508789 -59.5625 136.74633789 C-62.125 136.18383789 -62.125 136.18383789 -63.125 135.18383789 C-63.33196978 132.37496226 -63.44945528 129.62096223 -63.5 126.80883789 C-63.53738281 126.02766602 -63.57476562 125.24649414 -63.61328125 124.44165039 C-63.647126 122.24550195 -63.62730457 120.32360348 -63.125 118.18383789 C-60.65234375 116.34399414 -60.65234375 116.34399414 -58.125 115.18383789 C-57.23292821 112.08812719 -57.23292821 112.08812719 -57.125 109.18383789 C-57.929375 109.03946289 -58.73375 108.89508789 -59.5625 108.74633789 C-62.125 108.18383789 -62.125 108.18383789 -63.125 107.18383789 C-63.23992323 105.32023466 -63.28466243 103.45226793 -63.30200195 101.58520508 C-63.31483719 100.38595398 -63.32767242 99.18670288 -63.34089661 97.95111084 C-63.34828354 96.64087952 -63.35567047 95.33064819 -63.36328125 93.98071289 C-63.36735678 93.31383705 -63.3714323 92.64696121 -63.37563133 91.95987701 C-63.39653939 88.41767179 -63.41081011 84.87550563 -63.42016602 81.33325195 C-63.43113027 77.70559178 -63.4653971 74.07856222 -63.50533772 70.45112228 C-63.53176076 67.63860094 -63.53988115 64.82622243 -63.54344749 62.01358795 C-63.55057839 60.03694345 -63.57692635 58.06039753 -63.60383606 56.08392334 C-63.56767988 40.79527279 -58.87458661 28.14343753 -48.375 16.93383789 C-34.3305125 3.77892446 -18.34498372 1.53721245 0 0 Z " fill="#F5F3F9" transform="translate(132.125,2.816162109375)"/>
<path d="M0 0 C0.9809388 -0.08664854 1.96187759 -0.17329708 2.97254181 -0.26257133 C22.66191205 -1.99599217 42.38294391 -3.00783916 62.13079834 -3.79221439 C74.63790045 -4.30186882 87.06108591 -5.00607935 99.51757812 -6.25878906 C155.62341753 -11.76669396 202.44188055 -5.26656599 246.64531858 30.9053274 C287.84928962 65.3033535 314.83242608 104.06727552 320.02424312 158.25045311 C323.40634314 196.78450473 321.31747375 235.65472867 318.95217931 274.18344313 C318.09365865 288.33661298 317.53353129 302.48043307 317.16430664 316.65454102 C317.12474377 318.16873304 317.12474377 318.16873304 317.08438165 319.7135148 C316.95325361 324.78437393 316.82644645 329.8553314 316.70117772 334.9263382 C315.9355319 365.60395349 314.86189821 396.2625009 313.18826759 426.90456676 C313.06060161 429.2760753 312.93886853 431.6478192 312.81877136 434.01972198 C312.63147217 437.69328167 312.42659326 441.36544382 312.20740908 445.03723574 C312.09479537 446.97538972 311.99678273 448.91437558 311.89949375 450.85335922 C310.88953764 466.67551407 305.82267082 480.35041493 294.08984375 491.34008789 C282.57889201 500.92239692 270.34030413 504.81536929 255.46557617 504.69177246 C253.6985788 504.7011324 253.6985788 504.7011324 251.89588451 504.71068144 C248.66649048 504.72375963 245.43771093 504.7192116 242.20833349 504.70673656 C238.70995368 504.69761403 235.21165131 504.71169115 231.71328735 504.72265625 C224.87595694 504.74036992 218.03880295 504.73663361 211.20146585 504.72500569 C205.64075549 504.7159433 200.0800943 504.71475944 194.51937866 504.71910095 C193.32869476 504.72002035 193.32869476 504.72002035 192.11395663 504.72095832 C190.50099507 504.72223732 188.88803351 504.72353418 187.27507198 504.72484869 C172.1780579 504.73623353 157.08114124 504.72317378 141.98414314 504.70164722 C129.05220553 504.68377814 116.12041158 504.68688284 103.18847656 504.70532227 C88.14260274 504.72676612 73.09681413 504.73513509 58.05092716 504.72287321 C56.44415857 504.72159912 54.83738996 504.72034163 53.23062134 504.71910095 C52.04502185 504.7181753 52.04502185 504.7181753 50.83547086 504.71723095 C45.28648233 504.71378857 39.73754821 504.71958229 34.18856812 504.72901917 C27.41895878 504.7402797 20.64953478 504.73711445 13.87994647 504.71589619 C10.43113818 504.70543989 6.98263802 504.70117011 3.53383255 504.7144928 C-0.21627391 504.72548656 -3.96552371 504.71163683 -7.71557617 504.69177246 C-9.32636409 504.70515679 -9.32636409 504.70515679 -10.96969318 504.71881151 C-25.43808767 504.5710082 -37.83860565 499.30285986 -48.375 489.43383789 C-59.65527949 477.39075261 -63.7553753 463.95287669 -63.63293457 447.68209839 C-63.63917453 446.38678857 -63.6454145 445.09147875 -63.65184355 443.75691712 C-63.66838405 440.20044002 -63.66036153 436.64439787 -63.64789867 433.08792019 C-63.63878799 429.23799276 -63.65284689 425.38813625 -63.66381836 421.53822327 C-63.68153937 414.01443436 -63.67779387 406.49080567 -63.6661678 398.96701066 C-63.65711507 392.85463284 -63.65591738 386.74229976 -63.66026306 380.62991714 C-63.66087599 379.75830589 -63.66148893 378.88669464 -63.66212043 377.98867092 C-63.66339937 376.21785305 -63.66469622 374.44703518 -63.6660108 372.67621733 C-63.67739601 356.10257199 -63.66433176 339.52901541 -63.64280933 322.95538463 C-63.62490869 308.72973366 -63.6280708 294.50421312 -63.64648438 280.27856445 C-63.66787326 263.7466111 -63.6763307 247.21473515 -63.66403532 230.68276989 C-63.66276113 228.9217136 -63.66150365 227.1606573 -63.66026306 225.39960098 C-63.65933741 224.09994435 -63.65933741 224.09994435 -63.65839306 222.77403202 C-63.65493654 216.6628009 -63.6607743 210.55161887 -63.67018127 204.44039536 C-63.68137922 197.00259619 -63.67840655 189.56496595 -63.6570583 182.12718622 C-63.64652285 178.33128011 -63.64246856 174.53565605 -63.65565491 170.73975182 C-63.66971121 166.63150094 -63.65296659 162.52396674 -63.63293457 158.41574097 C-63.64185746 157.20769833 -63.65078034 155.9996557 -63.65997362 154.75500572 C-63.64432714 153.11216722 -63.64432714 153.11216722 -63.62836456 151.43614006 C-63.62771515 150.48743093 -63.62706574 149.53872181 -63.62639666 148.56126392 C-63.125 146.18383789 -63.125 146.18383789 -61.28885221 144.31260026 C-59.125 143.18383789 -59.125 143.18383789 -56 143.87133789 C-53.125 145.18383789 -53.125 145.18383789 -51.125 147.18383789 C-50.87479365 149.39859325 -50.87479365 149.39859325 -50.87446022 152.21938801 C-50.86946152 153.29172225 -50.86446283 154.3640565 -50.85931265 155.46888572 C-50.86397587 156.6564955 -50.86863908 157.84410529 -50.8734436 159.06770325 C-50.87047346 160.32205742 -50.86750333 161.57641159 -50.86444318 162.8687765 C-50.85637264 166.36228171 -50.86072446 169.85568042 -50.86696196 173.34918535 C-50.87148212 177.11290519 -50.8644624 180.87660426 -50.85865784 184.64031982 C-50.85000962 191.16805057 -50.84822049 197.69575421 -50.85060501 204.22348976 C-50.85369912 213.67574163 -50.8420751 223.12793346 -50.82605521 232.58017024 C-50.80006566 247.93332427 -50.78006341 263.28647834 -50.76660156 278.63964844 C-50.76579119 279.55920736 -50.76498082 280.47876629 -50.7641459 281.42619064 C-50.75294042 294.45663028 -50.74764728 307.48706567 -50.74475877 320.51750948 C-50.74455478 321.43373331 -50.74435079 322.34995713 -50.74414062 323.29394531 C-50.74394069 324.20905126 -50.74374075 325.1241572 -50.74353476 326.06699363 C-50.73979666 341.34830983 -50.72067211 356.62956124 -50.68904626 371.91084498 C-50.67016226 381.33265492 -50.66415135 390.75429842 -50.67486344 400.17612203 C-50.6812015 406.64206696 -50.67308877 413.10789299 -50.65380932 419.57381187 C-50.64316676 423.29999865 -50.63890806 427.02589643 -50.65228081 430.75208092 C-50.66667087 434.8026775 -50.64992456 438.85257684 -50.63052368 442.90315247 C-50.64421067 444.64776023 -50.64421067 444.64776023 -50.65817416 446.4276126 C-50.54000723 459.16519281 -47.17451935 470.82718181 -38.2421875 480.14868164 C-33.97664674 484.1047616 -29.52401673 487.01807263 -24.125 489.18383789 C-22.92788454 489.69627186 -22.92788454 489.69627186 -21.70658493 490.21905804 C-16.69813161 491.56819675 -11.93021557 491.46272826 -6.76495361 491.4445343 C-5.04050463 491.45027262 -5.04050463 491.45027262 -3.28121829 491.45612687 C-0.09878881 491.46465008 3.08349297 491.464227 6.26592636 491.45994627 C9.70163942 491.4574776 13.13732543 491.46649508 16.57302856 491.47398376 C23.30131111 491.48672984 30.02955374 491.48852449 36.75784633 491.4861835 C42.22863679 491.48439972 47.69941515 491.48615128 53.17020416 491.49040794 C53.94915586 491.49100313 54.72810756 491.49159832 55.53066386 491.49221155 C57.11319135 491.49342332 58.69571883 491.49463745 60.27824631 491.49585392 C75.11853948 491.50672956 89.95880992 491.50456713 104.79910436 491.49846908 C118.36523498 491.49330251 131.93129374 491.50454843 145.49741015 491.5235673 C159.43522813 491.54295703 173.37301215 491.55119954 187.31084371 491.54744405 C195.13253344 491.54553339 202.95416205 491.54800615 210.77584076 491.56215858 C217.4362418 491.57408799 224.0965441 491.57546 230.75694653 491.56336842 C234.15267939 491.55748994 237.54808428 491.55798666 240.94382858 491.56837082 C244.63172536 491.5788339 248.31913949 491.57074027 252.00701904 491.55805969 C253.07104533 491.56543398 254.13507162 491.57280826 255.23134112 491.58040601 C267.02878293 491.49526189 277.18299178 488.09061923 286.10546875 480.21508789 C293.61885168 472.4338733 297.98537054 462.27647294 298.0136652 451.45982742 C298.01913964 450.28492571 298.02461409 449.110024 298.03025442 447.89951921 C298.03123253 446.60770289 298.03221064 445.31588658 298.03321838 443.98492432 C298.03778427 442.59966252 298.04278434 441.21440209 298.04818195 439.82914329 C298.0617694 436.01865646 298.06918318 432.20817856 298.07560861 428.39767385 C298.08360988 424.28999233 298.0973086 420.1823294 298.11032104 416.07466125 C298.13208766 408.95654126 298.15023148 401.83841938 298.16592598 394.72028351 C298.18862291 384.42860971 298.21676599 374.13695651 298.24624526 363.84530017 C298.29392333 347.14842209 298.33718694 330.4515356 298.37768555 313.75463867 C298.41703937 297.53360336 298.45846533 281.31257554 298.50268555 265.09155273 C298.50677196 263.5921638 298.50677196 263.5921638 298.51094092 262.06248417 C298.52462038 257.04790275 298.53834065 252.03332144 298.55208123 247.01874018 C298.66604939 205.40712166 298.772858 163.79548701 298.875 122.18383789 C298.12490662 122.19049973 297.37481323 122.19716156 296.60198975 122.20402527 C289.48314388 122.26449649 282.36438914 122.30999342 275.24535751 122.33927441 C271.58663599 122.35483487 267.92812923 122.37589355 264.26953125 122.41015625 C260.72927025 122.4430978 257.18921394 122.46076293 253.64881134 122.46846962 C251.66161845 122.47659307 249.67450626 122.49995479 247.68743896 122.52372742 C231.20202635 122.52673898 218.1973158 118.02071137 206.16015625 106.59399414 C196.80694597 96.72915527 190.73399535 84.54515725 190.76147461 70.83300781 C190.76155014 69.57207809 190.76162567 68.31114838 190.76170349 67.01200867 C190.76680931 65.64610759 190.7720253 64.28020691 190.77734375 62.91430664 C190.7792103 61.50897777 190.78063308 60.10364824 190.78163147 58.69831848 C190.785438 55.01089664 190.79525226 51.32351459 190.80633545 47.6361084 C190.81658975 43.86882058 190.82113768 40.10152629 190.82617188 36.33422852 C190.8368763 28.9507469 190.8539302 21.56729798 190.875 14.18383789 C163.8319414 14.19765705 136.78905616 14.23994786 109.74609756 14.31592846 C97.18894772 14.35054899 84.63190732 14.37593015 72.07470703 14.37939453 C61.12703108 14.38243849 50.1795502 14.40298724 39.23194957 14.44436246 C33.43779002 14.46565468 27.64390754 14.47831235 21.84970856 14.46999168 C16.38964938 14.46242784 10.93015049 14.4783696 5.47019386 14.51189804 C3.47245497 14.52010314 1.47466006 14.51991472 -0.5230732 14.5104351 C-16.00310736 14.44428541 -28.3394857 16.53486565 -39.8046875 27.84008789 C-46.18056852 34.81866414 -50.36842763 43.59093334 -50.38037109 53.12573242 C-50.38733002 54.27357208 -50.39428894 55.42141174 -50.40145874 56.60403442 C-50.40046173 57.82919769 -50.39946472 59.05436096 -50.3984375 60.31665039 C-50.41871541 62.92212352 -50.43956597 65.52759225 -50.4609375 68.13305664 C-50.4857153 72.2325015 -50.50087716 76.33188101 -50.50585938 80.43139648 C-50.51183328 84.39338059 -50.5490759 88.35483161 -50.5859375 92.31665039 C-50.58089203 93.54586212 -50.57584656 94.77507385 -50.57064819 96.04153442 C-50.58391144 97.18306976 -50.59717468 98.3246051 -50.61083984 99.50073242 C-50.6151149 101.00580856 -50.6151149 101.00580856 -50.61947632 102.54129028 C-51.26473993 105.91430697 -52.43442438 107.10886482 -55.125 109.18383789 C-58.25 109.55883789 -58.25 109.55883789 -61.125 109.18383789 C-63.79493697 106.51390092 -63.38863274 105.20329771 -63.41552734 101.47167969 C-63.42828705 100.27250412 -63.44104675 99.07332855 -63.45419312 97.83781433 C-63.45641876 96.53274429 -63.45864441 95.22767426 -63.4609375 93.88305664 C-63.46736889 92.52700155 -63.4740975 91.17094784 -63.48110962 89.81489563 C-63.49310726 86.96250201 -63.49678878 84.11022958 -63.49560547 81.2578125 C-63.4954041 77.63798177 -63.52250209 74.01895245 -63.55714989 70.39931011 C-63.57963827 67.59105525 -63.58343612 64.78298502 -63.58238602 61.97464943 C-63.5858379 60.00246459 -63.60739338 58.03033743 -63.62948608 56.05827332 C-63.55331847 40.78517164 -58.86561772 28.13386213 -48.375 16.93383789 C-34.3305125 3.77892446 -18.34498372 1.53721245 0 0 Z " fill="#000000" transform="translate(132.125,2.816162109375)"/>
<path d="M0 0 C2.85933496 2.85933496 4.04807553 6.39973279 5.625 10.0625 C6.35170814 11.71665437 7.07959964 13.3702893 7.80859375 15.0234375 C8.36135986 16.27979004 8.36135986 16.27979004 8.92529297 17.56152344 C19.09460812 40.63538072 31.17994944 65.21616788 46.68115234 85.16333008 C48 87 48 87 48 89 C48.8699057 88.99000725 48.8699057 88.99000725 49.75738525 88.97981262 C55.79181374 88.9134568 61.82613863 88.86819841 67.86083984 88.83520508 C70.11316131 88.82011605 72.36545339 88.79964245 74.61767578 88.77368164 C77.85456596 88.73730407 81.09106775 88.7202747 84.328125 88.70703125 C85.83925873 88.68380547 85.83925873 88.68380547 87.38092041 88.66011047 C88.32159363 88.65988388 89.26226685 88.65965729 90.23144531 88.65942383 C91.47054657 88.64943108 91.47054657 88.64943108 92.73468018 88.63923645 C95.58702434 89.09348657 96.94587372 89.98824455 99 92 C99.5 95.5 99.5 95.5 99 99 C96.53065205 101.74995567 94.94854374 102.00591901 91.24121094 102.43237305 C89.73926627 102.47363884 88.23683428 102.49919858 86.734375 102.51171875 C85.54427826 102.53864555 85.54427826 102.53864555 84.33013916 102.56611633 C81.80347969 102.62016926 79.27700856 102.65409812 76.75 102.6875 C75.03382799 102.7206776 73.31768081 102.75516767 71.6015625 102.79101562 C67.40117768 102.87589255 63.20084823 102.94272721 59 103 C60.73500867 105.21406835 62.47079933 107.4275162 64.20703125 109.640625 C64.69240356 110.26018066 65.17777588 110.87973633 65.67785645 111.51806641 C69.34997406 116.19698061 73.0766988 120.82217941 76.890625 125.38671875 C78.31692139 127.1537415 79.68127609 128.97229363 80.984375 130.83203125 C84.36765818 135.56186114 86.48902271 138.41062974 92.375 139.5 C93.20773438 139.5721875 94.04046875 139.644375 94.8984375 139.71875 C97 140 97 140 99 142 C99.03167495 143.47496689 99.011981 144.95122752 98.96484375 146.42578125 C99.59870666 154.04445753 105.28725815 158.28839849 110.5625 163.1875 C111.55214739 164.14048777 112.53979577 165.09555601 113.52539062 166.05273438 C118.229327 170.59319721 123.00469229 175.07086763 128.03454971 179.25033092 C130 181 130 181 131.51549911 182.8208437 C135.09545595 186.80190924 138.16876193 188.39241229 143.56163359 188.7826885 C147.43892547 188.91030378 151.30619376 188.87701057 155.18457031 188.82299805 C156.93293754 188.82433887 158.68130475 188.82881607 160.42965698 188.83618164 C164.18293992 188.84540542 167.93527908 188.8327882 171.68845367 188.80304527 C177.62164254 188.75636817 183.55416322 188.75987395 189.48748779 188.7702179 C199.93523859 188.78202265 210.38253796 188.75115495 220.8302002 188.71105957 C236.57380298 188.65115155 252.31743386 188.62679597 268.06114268 188.63930541 C273.96111808 188.64241768 279.86052004 188.62392755 285.76038408 188.58831251 C289.42510049 188.56979543 293.08970216 188.56743523 296.75445938 188.5692215 C298.4556723 188.56655875 300.15689033 188.5569712 301.85802078 188.54001045 C304.17749459 188.51774549 306.49571002 188.51992024 308.81524658 188.52812195 C310.11380207 188.52271739 311.41235756 188.51731283 312.75026321 188.5117445 C316 189 316 189 318.41779709 190.83808613 C320 193 320 193 320.5 196.0625 C320 199 320 199 318.37607956 200.65867329 C315.26014043 202.41766001 313.05648975 202.38463529 309.48272705 202.39872742 C308.83002453 202.40537424 308.177322 202.41202107 307.50484061 202.41886932 C305.31979992 202.43750804 303.13530639 202.43489358 300.95019531 202.43237305 C299.38311489 202.44138972 297.81604153 202.4517167 296.24897766 202.46325684 C291.9951994 202.49086429 287.74155481 202.50011641 283.48769855 202.50611091 C279.04201764 202.51548485 274.59643696 202.54168742 270.15081787 202.56611633 C261.7325955 202.60981203 253.31439255 202.63834012 244.89609122 202.66143972 C235.31208454 202.68847494 225.72817855 202.73238747 216.14424372 202.77772844 C196.42954995 202.87061869 176.71482604 202.94227936 157 203 C159.02655384 204.57298728 161.05496833 206.14347363 163.08447266 207.71264648 C163.64880508 208.15107628 164.21313751 208.58950607 164.79457092 209.04122162 C170.79339024 213.67336851 177.0505247 217.89080224 183.375 222.0625 C183.95995239 222.45052795 184.54490479 222.83855591 185.14758301 223.23834229 C196.20646284 230.57386741 207.47302236 237.42556803 219 244 C219 244.33 219 244.66 219 245 C194.95592168 245.11695461 170.91188618 245.20504763 146.86758041 245.25906086 C135.702639 245.28481005 124.53787463 245.31989779 113.37304688 245.37719727 C103.6384272 245.42713277 93.9039358 245.45931488 84.1691916 245.47044247 C79.01770025 245.47694403 73.86657576 245.49215598 68.71520233 245.52865028 C63.85931945 245.56277016 59.00395204 245.57302082 54.14796066 245.56553841 C52.37270932 245.56690583 50.59743945 245.57674257 48.82229233 245.59602737 C33.73087159 245.75183558 22.44689266 242.79470133 11.1328125 232.26171875 C2.60003625 223.41766096 -0.16387446 212.42401255 -0.12025452 200.46427917 C-0.12110894 199.60654461 -0.12196337 198.74881004 -0.12284368 197.86508352 C-0.12449019 194.99230979 -0.11899066 192.11959451 -0.11352539 189.24682617 C-0.11324331 187.18700156 -0.11340165 185.12717685 -0.1139679 183.06735229 C-0.11425507 177.47484274 -0.10837118 171.88235458 -0.10139394 166.28985 C-0.09514717 160.44553851 -0.09455555 154.60122654 -0.09336853 148.75691223 C-0.09025913 137.68958423 -0.08205099 126.62226609 -0.07201904 115.55494243 C-0.06084579 102.95530936 -0.05534439 90.35567582 -0.05032361 77.75603902 C-0.03986807 51.83735388 -0.02227616 25.91867749 0 0 Z " fill="#E2E1E6" transform="translate(81,250)"/>
<path d="M0 0 C0.8252417 0.00354492 1.6504834 0.00708984 2.50073242 0.01074219 C12.11073186 0.26983761 20.07409311 3.74352162 27.6875 9.5 C28.491875 10.03625 29.29625 10.5725 30.125 11.125 C38.65861193 19.0342013 43.66850644 29.12499249 44.15795898 40.72436523 C44.31701575 52.64047747 41.5024486 63.23911377 33.6875 72.5 C29.37903421 76.83891431 24.99873554 80.4570074 19.6875 83.5 C20.27128418 83.5093457 20.85506836 83.51869141 21.45654297 83.52832031 C43.44724007 83.97117344 43.44724007 83.97117344 50.6875 88.5 C51.32429688 88.88800781 51.96109375 89.27601563 52.6171875 89.67578125 C59.01645594 94.33104306 62.92357847 101.88148205 64.19921875 109.59375 C64.53453029 118.56622441 62.06138509 125.89983817 56.4375 132.875 C51.60117 138.03444688 45.30711081 141.34762078 38.19160461 141.64717102 C36.71542667 141.6622743 35.23918547 141.67179339 33.76293945 141.67700195 C32.95605179 141.68357315 32.14916412 141.69014435 31.31782532 141.69691467 C28.64547633 141.7166361 25.97318357 141.728309 23.30078125 141.73828125 C22.38678244 141.74235678 21.47278362 141.7464323 20.53108788 141.75063133 C15.69138185 141.77148926 10.85170414 141.78579099 6.01196289 141.79516602 C1.02305156 141.80621711 -3.96541211 141.84060277 -8.95416546 141.88033772 C-12.79845485 141.90653786 -16.64263824 141.91486097 -20.48700905 141.91844749 C-22.32533598 141.92330632 -24.16365841 141.9349002 -26.00189781 141.95348549 C-28.5819434 141.97794487 -31.16083974 141.97689955 -33.7409668 141.9699707 C-34.86894684 141.98918579 -34.86894684 141.98918579 -36.01971436 142.00878906 C-43.75067536 141.93354578 -50.01587969 138.43973922 -55.70703125 133.34765625 C-61.37475538 126.82494698 -63.67608145 118.94699947 -63.59765625 110.48828125 C-62.95901272 103.79564704 -60.15160906 97.20832233 -55.3125 92.5 C-49.2582464 87.9593098 -43.74560586 84.35730196 -36.01171875 84.0859375 C-35.03525391 84.04726562 -34.05878906 84.00859375 -33.05273438 83.96875 C-32.04533203 83.9378125 -31.03792969 83.906875 -30 83.875 C-28.97326172 83.83632812 -27.94652344 83.79765625 -26.88867188 83.7578125 C-24.36345735 83.66385103 -21.83824408 83.5781846 -19.3125 83.5 C-19.95316406 83.0875 -20.59382813 82.675 -21.25390625 82.25 C-32.05278904 75.04001566 -40.27231316 65.92526249 -43.03125 52.8203125 C-44.70428651 39.01776131 -42.48939461 27.77783884 -34.3125 16.5 C-25.20919047 5.73811648 -14.17401964 -0.11079147 0 0 Z " fill="#020202" transform="translate(174.3125,166.5)"/>
<path d="M0 0 C5.3424061 4.46218486 10.31653199 9.17355392 15.23022461 14.10083008 C16.41681671 15.2847937 16.41681671 15.2847937 17.62738037 16.49267578 C20.22154325 19.08246393 22.81206298 21.67586069 25.40234375 24.26953125 C27.20823289 26.0747465 29.01427044 27.87981331 30.82044983 29.68473816 C34.59359767 33.45641532 38.36498729 37.22983843 42.13500977 41.00463867 C46.49748924 45.37258272 50.86359143 49.73688078 55.23154634 54.09934884 C59.4385746 58.30130365 63.64280171 62.50605234 67.8458271 66.71201134 C69.63416597 68.5010193 71.4232535 70.2892792 73.21308708 72.07679176 C75.7029901 74.56417207 78.18969378 77.05470601 80.67553711 79.54614258 C81.42194962 80.29053085 82.16836212 81.03491913 82.93739319 81.80186462 C83.60882355 82.47611481 84.28025391 83.15036499 84.97203064 83.845047 C85.56026076 84.43365415 86.14849089 85.0222613 86.75454617 85.62870502 C88 87 88 87 88 88 C80.63515926 88.07644863 73.27042195 88.12876661 65.90527344 88.16479492 C63.40295589 88.17982434 60.90066443 88.2002535 58.3984375 88.22631836 C54.78899675 88.26295878 51.17990617 88.27978546 47.5703125 88.29296875 C46.46261505 88.30845261 45.3549176 88.32393646 44.21365356 88.33988953 C31.44937176 88.34261722 20.80449645 84.48454625 11.25 75.875 C1.74057572 65.73611028 -0.32048326 53.13554167 -0.1953125 39.84375 C-0.1924826 38.70087524 -0.18965271 37.55800049 -0.18673706 36.38049316 C-0.17560025 32.75355268 -0.15050741 29.12686504 -0.125 25.5 C-0.11496181 23.03125358 -0.10583743 20.56250327 -0.09765625 18.09375 C-0.07568219 12.06241468 -0.04226957 6.03122541 0 0 Z " fill="#4C4C4C" transform="translate(335,25)"/>
<path d="M0 0 C0.75870392 -0.00861557 1.51740784 -0.01723114 2.29910278 -0.02610779 C4.78772867 -0.0486663 7.2752191 -0.0420479 9.76391602 -0.03295898 C11.50594921 -0.03819926 13.24797957 -0.04447721 14.99000549 -0.05174255 C18.63393544 -0.0621282 22.27747443 -0.05761213 25.92138672 -0.04296875 C30.57637997 -0.02578753 35.23013807 -0.049277 39.88499355 -0.08445835 C43.48057637 -0.10648678 47.07586615 -0.10497771 50.67149544 -0.09669304 C52.38699765 -0.09587642 54.102522 -0.10268423 55.81796074 -0.11746407 C73.15700923 -0.24396192 73.15700923 -0.24396192 79.08032227 5.53344727 C82.40260369 9.1048998 83.33928348 11.77003234 83.51782227 16.53344727 C83.28359481 21.57311543 82.3100313 25.29155403 78.65063477 28.97094727 C73.71972507 33.28855973 69.8145976 33.69156474 63.52294922 33.7421875 C62.37113914 33.75686317 62.37113914 33.75686317 61.19606018 33.77183533 C58.65359217 33.8017594 56.11117674 33.82316866 53.56860352 33.84204102 C52.69873495 33.84861284 51.82886639 33.85518467 50.93263817 33.86195564 C46.32636516 33.89453926 41.72011516 33.91899022 37.11376953 33.93847656 C33.30841257 33.95627341 29.50379891 33.99106833 25.69873047 34.04101562 C21.09807825 34.10133112 16.49811394 34.13196784 11.89708519 34.14164925 C10.14802228 34.15018718 8.39897692 34.16896432 6.65014076 34.19839287 C-9.87179789 34.46140154 -9.87179789 34.46140154 -15.61335754 29.09877014 C-19.34942421 24.6219576 -20.55279907 20.59066264 -20.32983398 14.84204102 C-19.60352087 10.75393579 -17.80631909 7.49621982 -14.91967773 4.53344727 C-9.86299353 1.15701728 -6.12611806 -0.05703258 0 0 Z " fill="#4C4C4C" transform="translate(142.919677734375,262.466552734375)"/>
<path d="M0 0 C1.0725 0.721875 2.145 1.44375 3.25 2.1875 C10.53292951 9.63595064 13.38731609 17.36427721 13.45092773 27.59765625 C13.22665777 36.91059706 9.44091179 44.01464746 2.8125 50.5 C-4.60291503 56.4521726 -12.62799206 58.76602617 -22.0859375 58.375 C-31.10766299 57.21402728 -38.08731682 52.84565094 -44 46 C-49.44645746 37.22587402 -51.10697566 29.30338881 -50 19 C-46.99630961 9.81728939 -41.6028872 2.65811104 -33.375 -2.375 C-22.75074365 -7.49038269 -9.65598321 -6.54642929 0 0 Z " fill="#4C4C4C" transform="translate(193,184)"/>
<path d="M0 0 C0.71584434 0.00377932 1.43168868 0.00755865 2.16922528 0.0114525 C3.30792461 0.00571418 3.30792461 0.00571418 4.46962798 -0.00014007 C7.02691682 -0.01050279 9.58398252 -0.00647179 12.14128643 -0.0025093 C13.96920502 -0.00685397 15.79712179 -0.01203629 17.62503582 -0.01799697 C22.60018717 -0.03142464 27.57526274 -0.03196146 32.55042869 -0.02943367 C36.69826538 -0.02836649 40.84608658 -0.03324081 44.99391997 -0.03803909 C54.77645227 -0.04914733 64.55894618 -0.0495643 74.34148175 -0.04352492 C84.44576437 -0.03748298 94.54990782 -0.04979874 104.6541667 -0.07109499 C113.31831014 -0.088687 121.98240919 -0.09471615 130.64656985 -0.09145725 C135.82612603 -0.08964039 141.00558295 -0.09232051 146.18512303 -0.10617179 C151.05489557 -0.11870653 155.92445052 -0.1168475 160.79421955 -0.1037609 C162.58451303 -0.10138602 164.37482161 -0.10416218 166.16509777 -0.11238402 C168.60333431 -0.12277665 171.04083057 -0.11481185 173.47903973 -0.10207289 C174.19265335 -0.10944718 174.90626697 -0.11682146 175.64150524 -0.12441921 C178.50026416 -0.09285294 180.43267479 -0.04182758 182.82331711 1.60803777 C184.51825304 4.25817649 184.33310928 6.21739495 183.88762432 9.27214891 C181.49269716 11.82306216 180.03394783 12.25569557 176.53021675 12.64967233 C175.16739099 12.66614952 173.80430556 12.66608763 172.44144207 12.65309983 C171.68876744 12.65777981 170.9360928 12.66245978 170.16060984 12.66728157 C167.63706269 12.67925324 165.11405642 12.6697661 162.59050518 12.6603325 C160.78199467 12.66439721 158.97348664 12.66973852 157.16498333 12.67626268 C152.25189052 12.6899531 147.33898643 12.68463075 142.42589027 12.67512542 C137.28898929 12.66753894 132.15210466 12.67457151 127.01520306 12.67928392 C118.38923253 12.68474392 109.76333902 12.6775429 101.13738018 12.66326219 C91.1568795 12.64693005 81.17656262 12.65222731 71.19606638 12.66874141 C62.63378562 12.68234311 54.07156028 12.68428253 45.50927222 12.6764254 C40.3923519 12.6717423 35.27551805 12.67114158 30.15860325 12.68103486 C25.34952751 12.68968331 20.54068944 12.68372158 15.73163944 12.66635209 C13.96392483 12.6623761 12.19619031 12.66354023 10.42848355 12.67014009 C8.0209908 12.67830182 5.61426633 12.6680999 3.20682293 12.65309983 C2.50235545 12.659792 1.79788797 12.66648417 1.07207298 12.67337912 C-1.74763638 12.63914958 -3.67458205 12.56609136 -6.05029434 10.97099572 C-7.8266172 8.1296875 -7.40713609 5.51451347 -7.11237568 2.27214891 C-4.66686348 -0.17336329 -3.33757754 0.02994476 0 0 Z " fill="#060607" transform="translate(217.11237567663193,439.7278510928154)"/>
<path d="M0 0 C0.71584434 0.00377932 1.43168868 0.00755865 2.16922528 0.0114525 C3.30792461 0.00571418 3.30792461 0.00571418 4.46962798 -0.00014007 C7.02691682 -0.01050279 9.58398252 -0.00647179 12.14128643 -0.0025093 C13.96920502 -0.00685397 15.79712179 -0.01203629 17.62503582 -0.01799697 C22.60018717 -0.03142464 27.57526274 -0.03196146 32.55042869 -0.02943367 C36.69826538 -0.02836649 40.84608658 -0.03324081 44.99391997 -0.03803909 C54.77645227 -0.04914733 64.55894618 -0.0495643 74.34148175 -0.04352492 C84.44576437 -0.03748298 94.54990782 -0.04979874 104.6541667 -0.07109499 C113.31831014 -0.088687 121.98240919 -0.09471615 130.64656985 -0.09145725 C135.82612603 -0.08964039 141.00558295 -0.09232051 146.18512303 -0.10617179 C151.05489557 -0.11870653 155.92445052 -0.1168475 160.79421955 -0.1037609 C162.58451303 -0.10138602 164.37482161 -0.10416218 166.16509777 -0.11238402 C168.60333431 -0.12277665 171.04083057 -0.11481185 173.47903973 -0.10207289 C174.19265335 -0.10944718 174.90626697 -0.11682146 175.64150524 -0.12441921 C178.50026416 -0.09285294 180.43267479 -0.04182758 182.82331711 1.60803777 C184.51825304 4.25817649 184.33310928 6.21739495 183.88762432 9.27214891 C181.49269716 11.82306216 180.03394783 12.25569557 176.53021675 12.64967233 C175.16739099 12.66614952 173.80430556 12.66608763 172.44144207 12.65309983 C171.68876744 12.65777981 170.9360928 12.66245978 170.16060984 12.66728157 C167.63706269 12.67925324 165.11405642 12.6697661 162.59050518 12.6603325 C160.78199467 12.66439721 158.97348664 12.66973852 157.16498333 12.67626268 C152.25189052 12.6899531 147.33898643 12.68463075 142.42589027 12.67512542 C137.28898929 12.66753894 132.15210466 12.67457151 127.01520306 12.67928392 C118.38923253 12.68474392 109.76333902 12.6775429 101.13738018 12.66326219 C91.1568795 12.64693005 81.17656262 12.65222731 71.19606638 12.66874141 C62.63378562 12.68234311 54.07156028 12.68428253 45.50927222 12.6764254 C40.3923519 12.6717423 35.27551805 12.67114158 30.15860325 12.68103486 C25.34952751 12.68968331 20.54068944 12.68372158 15.73163944 12.66635209 C13.96392483 12.6623761 12.19619031 12.66354023 10.42848355 12.67014009 C8.0209908 12.67830182 5.61426633 12.6680999 3.20682293 12.65309983 C2.50235545 12.659792 1.79788797 12.66648417 1.07207298 12.67337912 C-1.74763638 12.63914958 -3.67458205 12.56609136 -6.05029434 10.97099572 C-7.8266172 8.1296875 -7.40713609 5.51451347 -7.11237568 2.27214891 C-4.66686348 -0.17336329 -3.33757754 0.02994476 0 0 Z " fill="#070707" transform="translate(217.11237567663193,389.7278510928154)"/>
<path d="M0 0 C0.71584434 0.00377932 1.43168868 0.00755865 2.16922528 0.0114525 C3.30792461 0.00571418 3.30792461 0.00571418 4.46962798 -0.00014007 C7.02691682 -0.01050279 9.58398252 -0.00647179 12.14128643 -0.0025093 C13.96920502 -0.00685397 15.79712179 -0.01203629 17.62503582 -0.01799697 C22.60018717 -0.03142464 27.57526274 -0.03196146 32.55042869 -0.02943367 C36.69826538 -0.02836649 40.84608658 -0.03324081 44.99391997 -0.03803909 C54.77645227 -0.04914733 64.55894618 -0.0495643 74.34148175 -0.04352492 C84.44576437 -0.03748298 94.54990782 -0.04979874 104.6541667 -0.07109499 C113.31831014 -0.088687 121.98240919 -0.09471615 130.64656985 -0.09145725 C135.82612603 -0.08964039 141.00558295 -0.09232051 146.18512303 -0.10617179 C151.05489557 -0.11870653 155.92445052 -0.1168475 160.79421955 -0.1037609 C162.58451303 -0.10138602 164.37482161 -0.10416218 166.16509777 -0.11238402 C168.60333431 -0.12277665 171.04083057 -0.11481185 173.47903973 -0.10207289 C174.19265335 -0.10944718 174.90626697 -0.11682146 175.64150524 -0.12441921 C178.50026416 -0.09285294 180.43267479 -0.04182758 182.82331711 1.60803777 C184.51825304 4.25817649 184.33310928 6.21739495 183.88762432 9.27214891 C181.49269716 11.82306216 180.03394783 12.25569557 176.53021675 12.64967233 C175.16739099 12.66614952 173.80430556 12.66608763 172.44144207 12.65309983 C171.68876744 12.65777981 170.9360928 12.66245978 170.16060984 12.66728157 C167.63706269 12.67925324 165.11405642 12.6697661 162.59050518 12.6603325 C160.78199467 12.66439721 158.97348664 12.66973852 157.16498333 12.67626268 C152.25189052 12.6899531 147.33898643 12.68463075 142.42589027 12.67512542 C137.28898929 12.66753894 132.15210466 12.67457151 127.01520306 12.67928392 C118.38923253 12.68474392 109.76333902 12.6775429 101.13738018 12.66326219 C91.1568795 12.64693005 81.17656262 12.65222731 71.19606638 12.66874141 C62.63378562 12.68234311 54.07156028 12.68428253 45.50927222 12.6764254 C40.3923519 12.6717423 35.27551805 12.67114158 30.15860325 12.68103486 C25.34952751 12.68968331 20.54068944 12.68372158 15.73163944 12.66635209 C13.96392483 12.6623761 12.19619031 12.66354023 10.42848355 12.67014009 C8.0209908 12.67830182 5.61426633 12.6680999 3.20682293 12.65309983 C2.50235545 12.659792 1.79788797 12.66648417 1.07207298 12.67337912 C-1.74763638 12.63914958 -3.67458205 12.56609136 -6.05029434 10.97099572 C-7.8266172 8.1296875 -7.40713609 5.51451347 -7.11237568 2.27214891 C-4.66686348 -0.17336329 -3.33757754 0.02994476 0 0 Z " fill="#070707" transform="translate(217.11237567663193,339.7278510928154)"/>
<path d="M0 0 C5.82755227 3.78435559 10.95268103 7.36310342 13 14.1875 C12.875 17.4375 12.875 17.4375 11.8125 19.375 C8.79799522 21.02811552 7.28134715 21.09256676 3.875 20.4375 C1.95085246 18.81237539 0.29196731 17.03602354 -1.42578125 15.1953125 C-5.52310958 10.95669699 -9.4188948 10.22514842 -15.125 10 C-21.96467329 10.19445301 -25.01913079 12.28149105 -29.75 17.125 C-30.57155482 18.20711266 -31.36255466 19.31295687 -32.125 20.4375 C-32.52074219 21.01628906 -32.91648438 21.59507813 -33.32421875 22.19140625 C-38.02629795 30.62215177 -37.43960896 41.87615887 -35.27734375 51.0234375 C-32.55163447 58.35975332 -28.21110242 63.89444879 -21.125 67.4375 C-14.17697908 68.18574841 -8.6328295 68.1042865 -2.859375 63.953125 C-1.10340046 62.41862473 0.43473368 60.78913398 2 59.0625 C4.875 56.4375 4.875 56.4375 8.125 56.375 C10.875 57.4375 10.875 57.4375 12.875 60.4375 C13.29424264 63.51693704 13.13875404 64.99144537 11.546875 67.68359375 C4.75336682 75.42985003 -2.58394814 80.45430007 -13.1171875 81.14648438 C-22.55550008 81.33346981 -29.38447198 78.71374951 -36.3984375 72.38671875 C-45.34195495 63.02761034 -49.52715175 51.97209614 -49.4375 39.125 C-49.43186035 38.28267822 -49.4262207 37.44035645 -49.42041016 36.57250977 C-49.18435228 24.48330795 -45.11868902 14.6075102 -36.875 5.625 C-26.80421724 -3.57385352 -12.43496752 -6.38042472 0 0 Z " fill="#050505" transform="translate(226.125,54.5625)"/>
<path d="M0 0 C3.53130509 1.10353284 4.06301961 1.88209955 6 4.9375 C6.78311596 6.73511832 7.49776964 8.56334615 8.16064453 10.40869141 C8.75608566 12.05026718 8.75608566 12.05026718 9.36355591 13.7250061 C9.78241058 14.90114471 10.20126526 16.07728333 10.6328125 17.2890625 C11.30083149 19.13801808 11.96885121 20.98697339 12.63691521 22.8359127 C13.56846029 25.41960507 14.49360542 28.00557181 15.41894531 30.5914917 C16.81925421 34.50056631 18.22813395 38.40655777 19.63667107 42.31267357 C20.73193345 45.35011791 21.82513184 48.38826411 22.91433716 51.42788696 C23.30499359 52.51596649 23.69565002 53.60404602 24.09814453 54.72509766 C24.44217316 55.68566071 24.78620178 56.64622375 25.14065552 57.63589478 C25.94723718 59.9203984 25.94723718 59.9203984 27 61.9375 C27.25642776 61.21753342 27.51285553 60.49756683 27.77705383 59.75578308 C30.19579764 52.96950886 32.62267932 46.18622771 35.05874348 39.40615368 C36.31084481 35.92039143 37.55977463 32.43356024 38.80151367 28.9440918 C40.00009856 25.57626061 41.20693839 22.2114946 42.41954613 18.84868813 C42.88059582 17.5655506 43.3386669 16.28133877 43.79369545 14.9960537 C44.43178565 13.19531241 45.08149072 11.39869963 45.73168945 9.60229492 C46.09809036 8.57859299 46.46449127 7.55489105 46.84199524 6.50016785 C47.97881283 3.98438726 48.79199156 2.57077197 51 0.9375 C54.5625 0.5625 54.5625 0.5625 58 0.9375 C60.2325132 4.28626981 60.17678558 5.60713506 59.57043457 9.47232056 C58.35743649 14.71439053 56.37703534 19.70326086 54.484375 24.73046875 C53.80510956 26.56500359 53.80510956 26.56500359 53.11212158 28.43659973 C51.91171989 31.67798553 50.70093822 34.91539692 49.48797607 38.15209961 C48.27050452 41.40688005 47.06361891 44.66557907 45.85546875 47.92382812 C41.46396445 59.75206543 41.46396445 59.75206543 39.24353027 65.62557983 C38.37336549 67.94310788 37.51999004 70.26697764 36.67932129 72.59536743 C36.24792847 73.76957245 35.81653564 74.94377747 35.37207031 76.15356445 C34.98835266 77.21549515 34.60463501 78.27742584 34.20928955 79.37153625 C33 81.9375 33 81.9375 30 83.9375 C26.5625 84.375 26.5625 84.375 23 83.9375 C19.7720527 80.58525277 18.13434526 77.28165453 16.58984375 72.92895508 C16.1626001 71.74034378 15.73535645 70.55173248 15.29516602 69.32710266 C14.84246475 68.03713006 14.38991319 66.74710491 13.9375 65.45703125 C13.46046173 64.12017441 12.98249972 62.78364688 12.50366211 61.44743347 C11.24730018 57.93453438 10.00235089 54.41770145 8.76013184 50.89978027 C7.01529656 45.96509357 5.25483242 41.03595639 3.49633789 36.10612488 C2.56190612 33.48633473 1.63160728 30.86513855 0.70483398 28.24263 C0.27759033 27.0382579 -0.14965332 25.8338858 -0.58984375 24.59301758 C-1.19481689 22.88645493 -1.19481689 22.88645493 -1.81201172 21.14541626 C-3.19808847 17.40260311 -4.75055959 13.74965258 -6.40063477 10.11601257 C-7.15210531 7.38464288 -6.77905867 5.6365603 -6 2.9375 C-4.17787501 0.06046055 -3.45212819 -0.07191934 0 0 Z " fill="#050505" transform="translate(247,51.0625)"/>
<path d="M0 0 C1.1427388 -0.00708481 2.2854776 -0.01416962 3.46284485 -0.02146912 C4.7226416 -0.0189917 5.98243835 -0.01651428 7.28041077 -0.01396179 C8.61572557 -0.01830726 9.95103787 -0.02348985 11.28634644 -0.02944946 C14.91857297 -0.04286894 18.55069565 -0.04341486 22.18294215 -0.04088616 C25.21238344 -0.03981839 28.24180353 -0.04469485 31.27124029 -0.04949158 C38.41689128 -0.06059706 45.5624897 -0.06101841 52.70814514 -0.05497742 C60.08586914 -0.04893623 67.46340249 -0.06124982 74.84109396 -0.08254749 C81.1698036 -0.10014689 87.49845247 -0.10616747 93.82718569 -0.10290974 C97.60947223 -0.101094 101.39162281 -0.1037618 105.17388725 -0.11762428 C108.7304456 -0.13017107 112.2867062 -0.12828877 115.84325981 -0.11521339 C117.77378484 -0.11170809 119.70431883 -0.12304889 121.6348114 -0.13478088 C122.78037003 -0.12776657 123.92592865 -0.12075226 125.10620117 -0.11352539 C126.10374892 -0.11369313 127.10129667 -0.11386087 128.12907314 -0.1140337 C130.61659241 0.26069641 130.61659241 0.26069641 132.43364811 1.59658527 C134.2949271 4.21494618 134.07007634 6.1510923 133.61659241 9.26069641 C130.56894407 12.27769067 128.27292321 12.63679774 124.06860352 12.64164734 C122.37561378 12.65433655 122.37561378 12.65433655 120.64842224 12.6672821 C118.79756516 12.65817307 118.79756516 12.65817307 116.90931702 12.64888 C114.95520149 12.65676544 114.95520149 12.65676544 112.96160889 12.66481018 C109.39142504 12.67848277 105.82150135 12.67318587 102.25131297 12.66367292 C98.51577093 12.65607758 94.78025117 12.66312144 91.04470825 12.66783142 C84.77264912 12.67328867 78.50069599 12.6660975 72.22865295 12.65180969 C64.97470741 12.63547605 57.72101473 12.64077686 50.46707529 12.65728891 C44.24022567 12.67089621 38.01345223 12.67282738 31.78659254 12.6649729 C28.06694458 12.66029311 24.34741554 12.65967999 20.62777519 12.66958237 C16.48318843 12.67984551 12.33903881 12.66562709 8.19447327 12.64888 C6.34057983 12.65798904 6.34057983 12.65798904 4.44923401 12.6672821 C3.32339401 12.65882263 2.19755402 12.65036316 1.03759766 12.64164734 C-0.43270448 12.63995072 -0.43270448 12.63995072 -1.93270969 12.63821983 C-4.38340759 12.26069641 -4.38340759 12.26069641 -6.20268917 10.95954323 C-8.15307414 8.15328118 -7.68294647 5.55562407 -7.38340759 2.26069641 C-4.76522986 -0.35748132 -3.65006197 0.00751436 0 0 Z " fill="#070707" transform="translate(267.38340759277344,289.7393035888672)"/>
<path d="M0 0 C1.52478973 -0.01279495 1.52478973 -0.01279495 3.0803833 -0.02584839 C4.19991898 -0.02494202 5.31945465 -0.02403564 6.47291565 -0.02310181 C8.23639847 -0.03317764 8.23639847 -0.03317764 10.0355072 -0.04345703 C13.26486611 -0.05923148 16.4940709 -0.06581388 19.72346377 -0.0670886 C22.41738861 -0.06898572 25.11128866 -0.07634105 27.80520397 -0.08343279 C34.15978596 -0.09972778 40.51431127 -0.10460072 46.86891174 -0.10317993 C53.42872507 -0.10197802 59.98820962 -0.12308671 66.54793972 -0.15466726 C72.17602161 -0.18079914 77.80399591 -0.19154855 83.43213803 -0.19026911 C86.79530418 -0.18975858 90.15817825 -0.19549137 93.5212841 -0.21662521 C97.27106697 -0.23613431 101.01999518 -0.23050597 104.76979065 -0.21841431 C105.88730209 -0.22965332 107.00481354 -0.24089233 108.15618896 -0.25247192 C109.68520844 -0.23988846 109.68520844 -0.23988846 111.24511719 -0.22705078 C112.13204978 -0.22814032 113.01898237 -0.22922985 113.93279171 -0.2303524 C116.18605042 0.26742554 116.18605042 0.26742554 117.99876499 2.13817406 C119.18605042 4.26742554 119.18605042 4.26742554 119.12355042 6.82992554 C117.97099132 9.82657918 116.90549877 10.60995337 114.18605042 12.26742554 C111.85938931 12.64494896 111.85938931 12.64494896 109.2454834 12.64837646 C108.25145004 12.65683594 107.25741669 12.66529541 106.23326111 12.67401123 C105.1489682 12.66793854 104.06467529 12.66186584 102.94752502 12.65560913 C101.80083847 12.66086609 100.65415192 12.66612305 99.47271729 12.67153931 C95.67780486 12.68475637 91.88331095 12.67599538 88.08839417 12.66586304 C85.455708 12.66788313 82.82302238 12.67079403 80.19033813 12.67456055 C74.67152865 12.68001642 69.15283965 12.67283018 63.63404846 12.65853882 C57.25259631 12.64220442 50.87143158 12.64750701 44.48998636 12.66401803 C38.35075371 12.67926676 32.21164857 12.67766029 26.07240486 12.66887283 C23.45963565 12.66686751 20.84685912 12.66934168 18.23409843 12.67631149 C14.58759306 12.68390432 10.94164499 12.67235185 7.29518127 12.65560913 C6.20886414 12.66168182 5.122547 12.66775452 4.00331116 12.67401123 C3.01209763 12.66555176 2.02088409 12.65709229 0.99963379 12.64837646 C0.13742187 12.64724539 -0.72479006 12.64611431 -1.61312962 12.64494896 C-4.32840192 12.17917761 -5.21869794 11.49121118 -6.81394958 9.26742554 C-7.12644958 5.70492554 -7.12644958 5.70492554 -6.81394958 2.26742554 C-4.29841633 -0.24810772 -3.47950546 0.01315453 0 0 Z " fill="#070707" transform="translate(266.81394958496094,239.73257446289063)"/>
<path d="M0 0 C1.27464615 -0.00630432 2.5492923 -0.01260864 3.86256409 -0.019104 C5.25465025 -0.0155246 6.64673515 -0.01142273 8.03881836 -0.00683594 C9.46463589 -0.00818306 10.89045297 -0.01012399 12.31626892 -0.01263428 C15.30301287 -0.01558238 18.28963715 -0.01129742 21.27636719 -0.00195312 C25.10888961 0.00945168 28.94113224 0.00287363 32.77364445 -0.00909805 C35.7169761 -0.01631636 38.66024112 -0.01402906 41.60357475 -0.00884247 C43.01700308 -0.00750642 44.43043741 -0.00915213 45.84385872 -0.01380157 C47.81647759 -0.01886716 49.78911762 -0.00978055 51.76171875 0 C53.44691368 0.00238678 53.44691368 0.00238678 55.16615295 0.00482178 C57.81616211 0.25878906 57.81616211 0.25878906 59.81616211 2.25878906 C60.19116211 5.69628906 60.19116211 5.69628906 59.81616211 9.25878906 C57.60127657 11.53995393 56.20789851 12.20491258 53.04626465 12.63973999 C51.98355347 12.64212677 50.92084229 12.64451355 49.82592773 12.64697266 C48.61787476 12.65642914 47.40982178 12.66588562 46.16516113 12.67562866 C44.86405396 12.66955597 43.56294678 12.66348328 42.22241211 12.65722656 C40.8700749 12.65924844 39.51773876 12.66216083 38.16540527 12.66592407 C35.33420407 12.67034213 32.50328723 12.66393348 29.67211914 12.64990234 C26.04707452 12.63281028 22.42269627 12.64265431 18.79767609 12.66061974 C16.00607299 12.67147188 13.2146273 12.66800478 10.42301941 12.66023636 C8.43772956 12.65726815 6.45243353 12.66636276 4.46716309 12.67562866 C3.25911011 12.66617218 2.05105713 12.6567157 0.80639648 12.64697266 C-0.2563147 12.64458588 -1.31902588 12.6421991 -2.41394043 12.63973999 C-5.57629928 12.20481287 -6.96611233 11.53748119 -9.18383789 9.25878906 C-9.62133789 5.69628906 -9.62133789 5.69628906 -9.18383789 2.25878906 C-5.65236037 -0.09552929 -4.1827116 0.00591988 0 0 Z " fill="#060606" transform="translate(120.183837890625,439.7412109375)"/>
<path d="M0 0 C1.27464615 -0.00630432 2.5492923 -0.01260864 3.86256409 -0.019104 C5.25465025 -0.0155246 6.64673515 -0.01142273 8.03881836 -0.00683594 C9.46463589 -0.00818306 10.89045297 -0.01012399 12.31626892 -0.01263428 C15.30301287 -0.01558238 18.28963715 -0.01129742 21.27636719 -0.00195312 C25.10888961 0.00945168 28.94113224 0.00287363 32.77364445 -0.00909805 C35.7169761 -0.01631636 38.66024112 -0.01402906 41.60357475 -0.00884247 C43.01700308 -0.00750642 44.43043741 -0.00915213 45.84385872 -0.01380157 C47.81647759 -0.01886716 49.78911762 -0.00978055 51.76171875 0 C53.44691368 0.00238678 53.44691368 0.00238678 55.16615295 0.00482178 C57.81616211 0.25878906 57.81616211 0.25878906 59.81616211 2.25878906 C60.19116211 5.69628906 60.19116211 5.69628906 59.81616211 9.25878906 C57.60127657 11.53995393 56.20789851 12.20491258 53.04626465 12.63973999 C51.98355347 12.64212677 50.92084229 12.64451355 49.82592773 12.64697266 C48.61787476 12.65642914 47.40982178 12.66588562 46.16516113 12.67562866 C44.86405396 12.66955597 43.56294678 12.66348328 42.22241211 12.65722656 C40.8700749 12.65924844 39.51773876 12.66216083 38.16540527 12.66592407 C35.33420407 12.67034213 32.50328723 12.66393348 29.67211914 12.64990234 C26.04707452 12.63281028 22.42269627 12.64265431 18.79767609 12.66061974 C16.00607299 12.67147188 13.2146273 12.66800478 10.42301941 12.66023636 C8.43772956 12.65726815 6.45243353 12.66636276 4.46716309 12.67562866 C3.25911011 12.66617218 2.05105713 12.6567157 0.80639648 12.64697266 C-0.2563147 12.64458588 -1.31902588 12.6421991 -2.41394043 12.63973999 C-5.57629928 12.20481287 -6.96611233 11.53748119 -9.18383789 9.25878906 C-9.62133789 5.69628906 -9.62133789 5.69628906 -9.18383789 2.25878906 C-5.65236037 -0.09552929 -4.1827116 0.00591988 0 0 Z " fill="#060606" transform="translate(120.183837890625,389.7412109375)"/>
<path d="M0 0 C1.27464615 -0.00630432 2.5492923 -0.01260864 3.86256409 -0.019104 C5.25465025 -0.0155246 6.64673515 -0.01142273 8.03881836 -0.00683594 C9.46463589 -0.00818306 10.89045297 -0.01012399 12.31626892 -0.01263428 C15.30301287 -0.01558238 18.28963715 -0.01129742 21.27636719 -0.00195312 C25.10888961 0.00945168 28.94113224 0.00287363 32.77364445 -0.00909805 C35.7169761 -0.01631636 38.66024112 -0.01402906 41.60357475 -0.00884247 C43.01700308 -0.00750642 44.43043741 -0.00915213 45.84385872 -0.01380157 C47.81647759 -0.01886716 49.78911762 -0.00978055 51.76171875 0 C53.44691368 0.00238678 53.44691368 0.00238678 55.16615295 0.00482178 C57.81616211 0.25878906 57.81616211 0.25878906 59.81616211 2.25878906 C60.19116211 5.69628906 60.19116211 5.69628906 59.81616211 9.25878906 C57.60127657 11.53995393 56.20789851 12.20491258 53.04626465 12.63973999 C51.98355347 12.64212677 50.92084229 12.64451355 49.82592773 12.64697266 C48.61787476 12.65642914 47.40982178 12.66588562 46.16516113 12.67562866 C44.86405396 12.66955597 43.56294678 12.66348328 42.22241211 12.65722656 C40.8700749 12.65924844 39.51773876 12.66216083 38.16540527 12.66592407 C35.33420407 12.67034213 32.50328723 12.66393348 29.67211914 12.64990234 C26.04707452 12.63281028 22.42269627 12.64265431 18.79767609 12.66061974 C16.00607299 12.67147188 13.2146273 12.66800478 10.42301941 12.66023636 C8.43772956 12.65726815 6.45243353 12.66636276 4.46716309 12.67562866 C3.25911011 12.66617218 2.05105713 12.6567157 0.80639648 12.64697266 C-0.2563147 12.64458588 -1.31902588 12.6421991 -2.41394043 12.63973999 C-5.57629928 12.20481287 -6.96611233 11.53748119 -9.18383789 9.25878906 C-9.62133789 5.69628906 -9.62133789 5.69628906 -9.18383789 2.25878906 C-5.65236037 -0.09552929 -4.1827116 0.00591988 0 0 Z " fill="#070707" transform="translate(120.183837890625,339.7412109375)"/>
<path d="M0 0 C1.13134872 -0.00953201 2.26269745 -0.01906403 3.42832947 -0.02888489 C4.65540115 -0.02797348 5.88247284 -0.02706207 7.14672852 -0.02612305 C8.40195816 -0.03040817 9.65718781 -0.0346933 10.95045471 -0.03910828 C13.60952683 -0.04486078 16.26821194 -0.04627639 18.92724609 -0.04101562 C22.33495313 -0.03522228 25.74211642 -0.05214571 29.14973354 -0.0753603 C32.39872799 -0.09363528 35.6476919 -0.08991239 38.89672852 -0.08862305 C40.7342997 -0.10243767 40.7342997 -0.10243767 42.60899353 -0.11653137 C43.74349442 -0.11030258 44.8779953 -0.10407379 46.046875 -0.09765625 C47.04677963 -0.09828568 48.04668427 -0.0989151 49.07688904 -0.0995636 C51.58813477 0.2746582 51.58813477 0.2746582 53.40711975 1.64558411 C54.58813477 3.2746582 54.58813477 3.2746582 55.02563477 5.7121582 C54.44425171 9.11740179 53.25045007 10.12143553 50.58813477 12.2746582 C48.03929138 12.77586365 48.03929138 12.77586365 45.1328125 12.77636719 C44.04165634 12.78574814 42.95050018 12.79512909 41.82627869 12.80479431 C40.65327713 12.79356033 39.48027557 12.78232635 38.27172852 12.77075195 C37.06372086 12.77220718 35.8557132 12.77366241 34.61109924 12.77516174 C32.05825386 12.7735021 29.50539853 12.76193375 26.95263672 12.74121094 C23.03708594 12.71224292 19.12288732 12.72060448 15.20727539 12.73364258 C12.72875316 12.7274058 10.25023522 12.71901535 7.77172852 12.70825195 C6.00918983 12.71265541 6.00918983 12.71265541 4.21104431 12.71714783 C3.12304031 12.70446365 2.03503632 12.69177948 0.9140625 12.67871094 C-0.04427994 12.67330795 -1.00262238 12.66790497 -1.99000549 12.66233826 C-4.41186523 12.2746582 -4.41186523 12.2746582 -6.22520447 10.97206116 C-8.18498791 8.16878131 -7.71158582 5.57158465 -7.41186523 2.2746582 C-4.7925364 -0.34467063 -3.65119154 0.01683747 0 0 Z " fill="#070707" transform="translate(267.411865234375,189.725341796875)"/>
<path d="M0 0 C2.3125 1.3125 2.3125 1.3125 4.3125 3.3125 C4.6484375 6.4296875 4.6484375 6.4296875 4.6875 10.1875 C4.71585938 11.42242187 4.74421875 12.65734375 4.7734375 13.9296875 C4.3125 17.3125 4.3125 17.3125 2.51953125 19.76953125 C0.3125 21.3125 0.3125 21.3125 -3.375 21.125 C-6.6875 20.3125 -6.6875 20.3125 -7.6875 19.3125 C-7.89446978 16.50362437 -8.01195528 13.74962434 -8.0625 10.9375 C-8.09988281 10.15632812 -8.13726562 9.37515625 -8.17578125 8.5703125 C-8.2095996 6.37587751 -8.17721555 4.45289715 -7.6875 2.3125 C-4.81827186 -0.22365025 -3.75182174 -0.95976835 0 0 Z " fill="#030303" transform="translate(76.6875,118.6875)"/>
</svg>
